<?xml version="1.0" encoding="UTF-8" standalone="no" ?>
<!DOCTYPE svg PUBLIC "-//W3C//DTD SVG 1.1//EN" "http://www.w3.org/Graphics/SVG/1.1/DTD/svg11.dtd">
<svg xmlns="http://www.w3.org/2000/svg" xmlns:xlink="http://www.w3.org/1999/xlink" version="1.1" width="32" height="32" viewBox="0 0 128 128" xml:space="preserve">
<desc>Created with Fabric.js 4.6.0</desc>
<defs>
</defs>
<g transform="matrix(0.39 0 0 0.4 63.85 64.24)" id="lFhWGB0rO72uWnbiu8YyH"  >
<path style="stroke: rgb(87,151,168); stroke-width: 11; stroke-dasharray: none; stroke-linecap: butt; stroke-dashoffset: 0; stroke-linejoin: miter; stroke-miterlimit: 4; fill: rgb(132,181,111); fill-rule: nonzero; opacity: 1;" vector-effect="non-scaling-stroke"  transform=" translate(0, 0)" d="M -148.98178 -146.45667 C -148.98178 -147.85125 -147.84315999999998 -148.98178000000001 -146.43859999999998 -148.98178000000001 L 148.98178000000004 -148.98178000000001 L 148.98178000000004 146.45666999999997 L 148.98178000000004 146.45666999999997 C 148.98178000000004 147.85124999999996 147.84316000000004 148.98178 146.43860000000004 148.98178 L -148.98178 148.98178 z" stroke-linecap="round" />
</g>
<g transform="matrix(0.42 0 0 1.13 65.11 64.13)" id="Fh2VMRcDlD1dIZQe2N4pd"  >
<path style="stroke: rgb(87,151,168); stroke-width: 0; stroke-dasharray: none; stroke-linecap: butt; stroke-dashoffset: 0; stroke-linejoin: miter; stroke-miterlimit: 4; fill: rgb(49,63,63); fill-rule: nonzero; opacity: 1;" vector-effect="non-scaling-stroke"  transform=" translate(0, 0)" d="M -47.43243 -47.43243 L 47.43243 -47.43243 L 47.43243 47.43243 L -47.43243 47.43243 z" stroke-linecap="round" />
</g>
<g transform="matrix(0.21 0 0 0.92 64.08 25.54)" id="JuGUtPUquHKgQg421KMzN"  >
<path style="stroke: rgb(87,151,168); stroke-width: 0; stroke-dasharray: none; stroke-linecap: butt; stroke-dashoffset: 0; stroke-linejoin: miter; stroke-miterlimit: 4; fill: rgb(208,218,205); fill-rule: nonzero; opacity: 1;" vector-effect="non-scaling-stroke"  transform=" translate(0, 0)" d="M -12.63499 -7.58505 C -12.63499 -10.37405 -2.73353 -12.634979999999999 9.48053 -12.634979999999999 L 10.69198 -12.634979999999999 L 10.69198 -12.634979999999999 C 11.76507 -12.634979999999999 12.634979999999999 -12.43634 12.634979999999999 -12.191309999999998 L 12.634979999999999 7.585060000000002 L 12.634979999999999 7.585060000000002 C 12.634979999999999 10.374060000000002 2.7335199999999986 12.634990000000002 -9.480540000000001 12.634990000000002 L -10.69199 12.634990000000002 L -10.69199 12.634990000000002 C -11.765080000000001 12.634990000000002 -12.63499 12.436350000000003 -12.63499 12.191320000000001 z" stroke-linecap="round" />
</g>
<g transform="matrix(0.21 0 0 0.92 63.16 66.02)" id="C3KTXTMn-GXo5qpYkm5ef"  >
<path style="stroke: rgb(87,151,168); stroke-width: 0; stroke-dasharray: none; stroke-linecap: butt; stroke-dashoffset: 0; stroke-linejoin: miter; stroke-miterlimit: 4; fill: rgb(208,218,205); fill-rule: nonzero; opacity: 1;" vector-effect="non-scaling-stroke"  transform=" translate(0, 0)" d="M -12.63499 -7.58505 C -12.63499 -10.37405 -2.7004199999999994 -12.634979999999999 9.554499999999999 -12.634979999999999 L 10.765949999999998 -12.634979999999999 L 10.765949999999998 -12.634979999999999 C 11.798189999999998 -12.634979999999999 12.634979999999999 -12.444539999999998 12.634979999999999 -12.20962 L 12.634979999999999 7.58507 L 12.634979999999999 7.58507 C 12.634979999999999 10.37407 2.700409999999998 12.635 -9.55451 12.635 L -10.76596 12.635 L -10.76596 12.635 C -11.7982 12.635 -12.63499 12.44456 -12.63499 12.20964 z" stroke-linecap="round" />
</g>
<g transform="matrix(0.21 0 0 0.92 63.61 104.11)" id="F3IZEjKPRBIlwvdSUYCst"  >
<path style="stroke: rgb(87,151,168); stroke-width: 0; stroke-dasharray: none; stroke-linecap: butt; stroke-dashoffset: 0; stroke-linejoin: miter; stroke-miterlimit: 4; fill: rgb(208,218,205); fill-rule: nonzero; opacity: 1;" vector-effect="non-scaling-stroke"  transform=" translate(0, 0)" d="M -12.63499 -7.58505 C -12.63499 -10.37405 -2.7004199999999994 -12.634979999999999 9.554499999999999 -12.634979999999999 L 10.765949999999998 -12.634979999999999 L 10.765949999999998 -12.634979999999999 C 11.798189999999998 -12.634979999999999 12.634979999999999 -12.444539999999998 12.634979999999999 -12.20962 L 12.634979999999999 7.58507 L 12.634979999999999 7.58507 C 12.634979999999999 10.37407 2.700409999999998 12.635 -9.55451 12.635 L -10.76596 12.635 L -10.76596 12.635 C -11.7982 12.635 -12.63499 12.44456 -12.63499 12.20964 z" stroke-linecap="round" />
</g>
</svg>